<svg width="28" height="28" viewBox="0 0 28 28" fill="none" xmlns="http://www.w3.org/2000/svg">
<path fill-rule="evenodd" clip-rule="evenodd" d="M24.8889 4.2694V5.84207C25.714 5.84207 26.5053 6.16984 27.0888 6.75329C27.6722 7.33674 28 8.12806 28 8.95318V24.5087C28 25.3339 27.6722 26.1252 27.0888 26.7086C26.5053 27.2921 25.714 27.6198 24.8889 27.6198H3.11111C2.28599 27.6198 1.49467 27.2921 0.911223 26.7086C0.327777 26.1252 0 25.3339 0 24.5087V8.95318C0 7.32762 1.29889 5.85296 2.82022 5.41896L19.9313 0.529844C20.5101 0.364418 21.1195 0.335624 21.7113 0.445728C22.3031 0.555833 22.8613 0.801829 23.3419 1.16435C23.8225 1.52686 24.2124 1.996 24.4808 2.53482C24.7493 3.07363 24.8889 3.66741 24.8889 4.2694ZM19.4444 14.3976C18.8256 14.3976 18.2321 14.6435 17.7945 15.081C17.3569 15.5186 17.1111 16.1121 17.1111 16.731C17.1111 17.3498 17.3569 17.9433 17.7945 18.3809C18.2321 18.8185 18.8256 19.0643 19.4444 19.0643C20.0633 19.0643 20.6568 18.8185 21.0944 18.3809C21.5319 17.9433 21.7778 17.3498 21.7778 16.731C21.7778 16.1121 21.5319 15.5186 21.0944 15.081C20.6568 14.6435 20.0633 14.3976 19.4444 14.3976ZM21.7778 4.2694C21.7779 4.1596 21.7547 4.05102 21.7098 3.95082C21.6649 3.85061 21.5993 3.76105 21.5173 3.68801C21.4353 3.61498 21.3388 3.56014 21.2341 3.5271C21.1294 3.49405 21.0188 3.48355 20.9098 3.49629L20.7853 3.52118L12.6622 5.84207H21.7778V4.2694Z" fill="#0E3673"/>
</svg>
