<svg width="19" height="18" viewBox="0 0 19 18" fill="none" xmlns="http://www.w3.org/2000/svg">
<path d="M9.66699 0C14.6377 0 18.667 4.0293 18.667 9C18.667 13.9707 14.6377 18 9.66699 18C4.69629 18 0.666992 13.9707 0.666992 9C0.666992 4.0293 4.69629 0 9.66699 0ZM9.65799 7.2H8.76699C8.5376 7.20025 8.31696 7.28809 8.15016 7.44556C7.98336 7.60304 7.88298 7.81826 7.86954 8.04726C7.85609 8.27625 7.9306 8.50174 8.07783 8.67765C8.22506 8.85356 8.43391 8.96661 8.66169 8.9937L8.76699 9V13.491C8.76699 13.959 9.12159 14.346 9.57699 14.3946L9.67599 14.4H10.117C10.3063 14.4 10.4907 14.3403 10.6442 14.2295C10.7976 14.1186 10.9121 13.9622 10.9715 13.7825C11.0309 13.6028 11.0322 13.4089 10.9751 13.2284C10.9179 13.048 10.8054 12.8901 10.6534 12.7773L10.567 12.7206V8.109C10.567 7.641 10.2124 7.254 9.75699 7.2054L9.65799 7.2ZM9.66699 4.5C9.4283 4.5 9.19938 4.59482 9.0306 4.7636C8.86181 4.93239 8.76699 5.16131 8.76699 5.4C8.76699 5.6387 8.86181 5.86761 9.0306 6.0364C9.19938 6.20518 9.4283 6.3 9.66699 6.3C9.90569 6.3 10.1346 6.20518 10.3034 6.0364C10.4722 5.86761 10.567 5.6387 10.567 5.4C10.567 5.16131 10.4722 4.93239 10.3034 4.7636C10.1346 4.59482 9.90569 4.5 9.66699 4.5Z" fill="white"/>
</svg>
