<svg width="17" height="17" viewBox="0 0 17 17" fill="none" xmlns="http://www.w3.org/2000/svg">
<path d="M15.4055 14.2172C15.6413 14.2175 15.8682 14.3078 16.0397 14.4697C16.2112 14.6316 16.3144 14.8529 16.3282 15.0883C16.3421 15.3238 16.2655 15.5556 16.1141 15.7365C15.9627 15.9174 15.748 16.0336 15.5138 16.0615L15.4055 16.0679H8.92785C8.69199 16.0677 8.46514 15.9774 8.29363 15.8155C8.12213 15.6535 8.01892 15.4323 8.0051 15.1968C7.99127 14.9613 8.06788 14.7295 8.21926 14.5486C8.37064 14.3678 8.58538 14.2515 8.81959 14.2237L8.92785 14.2172H15.4055ZM12.7182 0.677104C13.142 0.253561 13.7136 0.0109581 14.3126 0.000362202C14.9117 -0.0102337 15.4915 0.212004 15.93 0.620295C16.3685 1.02859 16.6315 1.59108 16.6637 2.18938C16.6958 2.78767 16.4945 3.3751 16.1023 3.82801L15.9894 3.9483L5.9065 14.0321C5.81839 14.1203 5.71878 14.1963 5.61038 14.2579L5.49934 14.3134L1.97921 15.9143C1.23151 16.2539 0.463448 15.5284 0.716075 14.7807L0.75309 14.6882L2.35399 11.1672C2.40531 11.0539 2.4716 10.9481 2.55109 10.8525L2.63438 10.76L12.7182 0.677104Z" fill="white"/>
</svg>
