<svg width="16" height="16" viewBox="0 0 16 16" fill="none" xmlns="http://www.w3.org/2000/svg">
<path d="M14.1693 15.5L8.91927 10.25C8.5026 10.5833 8.02344 10.8472 7.48177 11.0417C6.9401 11.2361 6.36371 11.3333 5.7526 11.3333C4.23872 11.3333 2.95747 10.809 1.90885 9.76042C0.860243 8.71181 0.335938 7.43056 0.335938 5.91667C0.335938 4.40278 0.860243 3.12153 1.90885 2.07292C2.95747 1.02431 4.23872 0.5 5.7526 0.5C7.26649 0.5 8.54774 1.02431 9.59635 2.07292C10.645 3.12153 11.1693 4.40278 11.1693 5.91667C11.1693 6.52778 11.072 7.10417 10.8776 7.64583C10.6832 8.1875 10.4193 8.66667 10.0859 9.08333L15.3359 14.3333L14.1693 15.5ZM5.7526 9.66667C6.79427 9.66667 7.67969 9.30208 8.40885 8.57292C9.13802 7.84375 9.5026 6.95833 9.5026 5.91667C9.5026 4.875 9.13802 3.98958 8.40885 3.26042C7.67969 2.53125 6.79427 2.16667 5.7526 2.16667C4.71094 2.16667 3.82552 2.53125 3.09635 3.26042C2.36719 3.98958 2.0026 4.875 2.0026 5.91667C2.0026 6.95833 2.36719 7.84375 3.09635 8.57292C3.82552 9.30208 4.71094 9.66667 5.7526 9.66667Z" fill="white"/>
</svg>
