<svg width="17" height="18" viewBox="0 0 17 18" fill="none" xmlns="http://www.w3.org/2000/svg">
<path fill-rule="evenodd" clip-rule="evenodd" d="M4.9541 1.216C5.07206 0.861856 5.29849 0.553824 5.6013 0.335569C5.90412 0.117314 6.26794 -8.98322e-05 6.64121 5.15724e-08H10.6928C11.066 -8.98322e-05 11.4299 0.117314 11.7327 0.335569C12.0355 0.553824 12.2619 0.861856 12.3799 1.216L12.8625 2.66667H15.7781C16.0139 2.66667 16.2399 2.76032 16.4066 2.92702C16.5733 3.09372 16.667 3.31981 16.667 3.55556C16.667 3.7913 16.5733 4.0174 16.4066 4.18409C16.2399 4.35079 16.0139 4.44444 15.7781 4.44444H14.8892V15.1111C14.8892 15.8184 14.6083 16.4966 14.1082 16.9967C13.6081 17.4968 12.9298 17.7778 12.2225 17.7778H5.11144C4.40419 17.7778 3.72592 17.4968 3.22582 16.9967C2.72572 16.4966 2.44477 15.8184 2.44477 15.1111V4.44444H1.55588C1.32013 4.44444 1.09404 4.35079 0.927342 4.18409C0.760643 4.0174 0.666992 3.7913 0.666992 3.55556C0.666992 3.31981 0.760643 3.09372 0.927342 2.92702C1.09404 2.76032 1.32013 2.66667 1.55588 2.66667H4.47144L4.9541 1.216ZM6.34433 2.66667L6.64121 1.77778H10.6928L10.9897 2.66667H6.34433Z" fill="white"/>
</svg>
